<svg width="20" height="20" viewBox="0 0 20 20" fill="none" xmlns="http://www.w3.org/2000/svg">
<path d="M17.3316 8.62997L4.20191 1.13778C3.92508 0.982713 3.6076 0.9156 3.29169 0.94537C2.97579 0.97514 2.67644 1.10038 2.43345 1.30444C2.19047 1.5085 2.01537 1.7817 1.93144 2.0877C1.84751 2.3937 1.85874 2.718 1.96363 3.01747L4.32144 9.99872L1.96363 16.98C1.88073 17.2155 1.85549 17.4674 1.89 17.7147C1.92452 17.962 2.01779 18.1974 2.16201 18.4012C2.30623 18.6051 2.49719 18.7713 2.7189 18.8862C2.9406 19.001 3.1866 19.061 3.43628 19.0612C3.70478 19.0607 3.96865 18.9913 4.20269 18.8597L4.20972 18.855L17.3347 11.3495C17.5754 11.2133 17.7756 11.0156 17.9148 10.7767C18.0541 10.5378 18.1275 10.2663 18.1275 9.98974C18.1275 9.7132 18.0541 9.44163 17.9148 9.20273C17.7756 8.96384 17.5754 8.76619 17.3347 8.62997H17.3316ZM3.998 16.8159L5.98394 10.9362H10.3113C10.5599 10.9362 10.7984 10.8374 10.9742 10.6616C11.15 10.4858 11.2488 10.2474 11.2488 9.99872C11.2488 9.75008 11.15 9.51162 10.9742 9.33581C10.7984 9.15999 10.5599 9.06122 10.3113 9.06122H5.98394L3.99722 3.17997L15.9316 9.99013L3.998 16.8159Z" fill="white" style="fill:white;fill-opacity:1;"/>
</svg>
